<svg width="90" height="105" viewBox="0 0 90 105" fill="none" xmlns="http://www.w3.org/2000/svg">
<path d="M11.3 4.9V7.8C11.3 13.6 8.05 19.6 0.3 22.1L3.75 27.25C12.6 24.4 16.75 16.55 16.75 7.8V4.9H11.3ZM12.65 4.9V7.8C12.65 16.1 16.65 23.65 25.3 26.45L28.7 21.3C21.2 18.9 18.05 13.25 18.05 7.8V4.9H12.65ZM2.1 2.85V8.15H27.1V2.85H2.1ZM30.8 0.149999V28.05H37.45V0.149999H30.8ZM35.6 11.35V16.8H43.6V11.35H35.6ZM6.55 30.05V35.4H30.8V46.45H37.45V30.05H6.55ZM76.8461 0.149999V26.85H83.5461V0.149999H76.8461ZM81.5961 11.1V16.5H89.5961V11.1H81.5961ZM68.3461 27.7C58.7961 27.7 52.6461 31.25 52.6461 37.1C52.6461 43 58.7961 46.5 68.3461 46.5C77.8461 46.5 83.9961 43 83.9961 37.1C83.9961 31.25 77.8461 27.7 68.3461 27.7ZM68.3461 33C74.1961 33 77.4461 34.3 77.4461 37.1C77.4461 39.85 74.1961 41.2 68.3461 41.2C62.4461 41.2 59.1961 39.85 59.1961 37.1C59.1961 34.3 62.4461 33 68.3461 33ZM48.5961 19.15V24.45H52.4461C62.8961 24.45 68.2461 24.25 73.8961 23L73.2461 17.7C67.6961 18.9 62.6461 19.15 52.4461 19.15H48.5961ZM48.5961 3.25V22.75H55.1961V8.55H69.2961V3.25H48.5961ZM1.05 94.7V100.1H42.95V94.7H1.05ZM18.6 84.45V95.95H25.25V84.45H18.6ZM5.4 62.55V85.3H38.35V62.55H5.4ZM31.85 67.85V80.05H11.95V67.85H31.85ZM78.7961 59.2V85.35H85.4961V59.2H78.7961ZM54.6961 87.45V104.95H85.4961V87.45H54.6961ZM78.9461 92.65V99.7H61.1961V92.65H78.9461ZM60.2961 61.3C53.0961 61.3 47.6961 65.9 47.6961 72.4C47.6961 78.85 53.0961 83.5 60.2961 83.5C67.4961 83.5 72.8461 78.85 72.8461 72.4C72.8461 65.9 67.4961 61.3 60.2961 61.3ZM60.2961 66.8C63.7961 66.8 66.3461 68.85 66.3461 72.4C66.3461 75.9 63.7961 77.95 60.2961 77.95C56.7961 77.95 54.1961 75.9 54.1961 72.4C54.1961 68.85 56.7961 66.8 60.2961 66.8Z" fill="black"/>
</svg>
